<svg width="2000" height="2021" viewBox="0 0 2000 2021" fill="none" xmlns="http://www.w3.org/2000/svg">
<rect width="2000" height="2021" fill="#FFE576"/>
<path d="M1739.05 680.173C1749.87 687.718 1753.19 704.088 1746.67 716.473C1741.76 725.868 1732.54 730.424 1723.69 728.858L1422.13 894.129L1421.76 894.414C1419.42 957.191 1416.11 1025.8 1409.59 1095.84C1402.96 1167.73 1393.13 1241.33 1377.64 1311.93C1351.34 1431.94 1302.31 1555.78 1226.61 1641.76C1163.69 1713.08 1082.96 1758.49 982.065 1755.22C937.211 1753.65 892.603 1740.98 850.329 1717.07C809.776 1694.01 771.435 1660.7 737.273 1616.71C607.38 1450.44 587.595 1193.5 570.022 965.305C568.302 943.525 566.704 921.888 564.861 900.108L253.709 714.623C249.531 712.487 245.844 709.071 243.386 704.231C236.75 691.704 240.191 675.476 250.882 667.789L574.446 437.178C617.334 401.732 659.73 380.948 705.322 373.831C750.667 366.713 798.348 373.119 852.05 391.909C997.672 443.014 1006.64 440.309 1133.71 403.155C1144.15 400.166 1155.58 396.749 1175.37 391.055C1220.96 377.959 1253.4 375.112 1286.7 383.084C1318.9 390.771 1349.75 407.995 1393.25 435.612C1393.86 436.039 1394.6 436.323 1395.21 436.893L1739.05 680.173ZM1422.62 835.337L1675.28 696.828L1371.5 481.734C1331.8 456.537 1304.03 440.879 1277.61 434.615C1251.8 428.494 1225.14 431.056 1186.3 442.302C1175.86 445.292 1159.76 449.989 1144.89 454.402C1006.4 494.973 996.566 497.82 838.901 442.587C791.343 425.932 749.93 420.095 711.466 426.216C673.494 432.195 637.488 450.132 600.375 480.88C599.884 481.307 599.515 481.592 599.024 481.876L309.254 688.287L559.454 837.473C557.488 793.77 561.912 754.481 572.849 719.89C584.154 683.874 602.342 653.126 627.411 627.645C658.87 595.758 694.876 576.256 732.971 566.434C775.245 555.472 819.73 556.611 863.11 565.437C887.196 570.419 910.913 578.106 934.139 588.356C952.572 596.47 970.514 606.008 988.087 616.826H988.701C989.193 616.826 989.684 616.826 990.176 616.826C1029.75 588.071 1069.93 569.281 1110.85 560.17C1156.57 550.063 1202.89 552.056 1249.84 566.291C1295.18 580.099 1326.4 593.908 1351.34 617.965C1376.54 642.307 1393.49 675.476 1409.59 727.292C1415.86 747.506 1419.55 772.56 1421.27 800.888C1422 811.849 1422.37 823.38 1422.62 835.337ZM1019.3 658.393V1209.3C1019.3 1228.8 1005.66 1244.6 988.824 1244.6C971.988 1244.6 958.348 1228.8 958.348 1209.3V658.536C945.076 650.706 931.681 643.873 918.163 637.895C897.764 628.926 876.873 622.093 855.368 617.68C817.15 609.851 778.686 608.712 742.925 617.965C712.08 625.937 682.956 641.596 657.518 667.361C638.348 686.721 624.461 710.352 615.859 737.826C607.011 766.012 603.448 798.753 605.168 836.049C608.732 873.488 612.05 916.478 615.491 960.75C632.449 1180.54 651.497 1428.09 770.944 1581.12C801.174 1619.98 834.845 1649.31 870.237 1669.38C906.612 1690.02 944.83 1700.98 983.171 1702.26C1070.18 1705.25 1139.98 1665.82 1194.54 1604.04C1263.72 1525.6 1308.82 1410.87 1333.28 1299.12C1348.27 1230.79 1357.73 1159.76 1364.12 1090.29C1370.64 1019.97 1373.83 951.782 1376.17 889.716C1377.27 859.11 1377.27 830.355 1375.8 804.874C1374.32 780.816 1371.5 760.318 1366.83 745.371C1353.68 702.95 1340.65 676.757 1322.22 658.82C1303.42 640.599 1277.36 629.353 1238.65 617.68C1198.35 605.438 1158.78 603.588 1119.58 612.271C1085.91 619.673 1052.48 635.047 1019.3 658.393Z" fill="black"/>
<rect x="946" y="853" width="78" height="396" fill="#FFE576"/>
</svg>
